<mxfile host="Electron" agent="Mozilla/5.0 (X11; Linux x86_64) AppleWebKit/537.36 (KHTML, like Gecko) draw.io/26.0.9 Chrome/128.0.6613.186 Electron/32.3.0 Safari/537.36" version="26.0.9">
  <diagram name="Page-1" id="O4SVu5lSRvrRjhZdqyhw">
    <mxGraphModel dx="1389" dy="859" grid="1" gridSize="10" guides="1" tooltips="1" connect="1" arrows="1" fold="1" page="1" pageScale="1" pageWidth="850" pageHeight="1100" math="0" shadow="0">
      <root>
        <mxCell id="0" />
        <mxCell id="1" parent="0" />
        <mxCell id="4TdEoTzuEhbSHWX1Rsvr-3" value="Mux8way16" style="text;html=1;align=center;verticalAlign=middle;whiteSpace=wrap;rounded=0;fontSize=30;" vertex="1" parent="1">
          <mxGeometry x="360" y="10" width="60" height="30" as="geometry" />
        </mxCell>
        <mxCell id="4TdEoTzuEhbSHWX1Rsvr-60" value="" style="group" vertex="1" connectable="0" parent="1">
          <mxGeometry x="630" y="300" width="120" height="100" as="geometry" />
        </mxCell>
        <mxCell id="4TdEoTzuEhbSHWX1Rsvr-117" style="edgeStyle=orthogonalEdgeStyle;rounded=0;orthogonalLoop=1;jettySize=auto;html=1;" edge="1" parent="4TdEoTzuEhbSHWX1Rsvr-60" source="4TdEoTzuEhbSHWX1Rsvr-61">
          <mxGeometry relative="1" as="geometry">
            <mxPoint x="200" y="40" as="targetPoint" />
          </mxGeometry>
        </mxCell>
        <mxCell id="4TdEoTzuEhbSHWX1Rsvr-61" value="Mux16" style="triangle;whiteSpace=wrap;html=1;" vertex="1" parent="4TdEoTzuEhbSHWX1Rsvr-60">
          <mxGeometry x="40" width="80" height="80" as="geometry" />
        </mxCell>
        <mxCell id="4TdEoTzuEhbSHWX1Rsvr-62" value="" style="endArrow=classic;html=1;rounded=0;entryX=0.5;entryY=1;entryDx=0;entryDy=0;" edge="1" parent="4TdEoTzuEhbSHWX1Rsvr-60" target="4TdEoTzuEhbSHWX1Rsvr-61">
          <mxGeometry width="50" height="50" relative="1" as="geometry">
            <mxPoint x="80" y="100" as="sourcePoint" />
            <mxPoint x="130" y="90" as="targetPoint" />
          </mxGeometry>
        </mxCell>
        <mxCell id="4TdEoTzuEhbSHWX1Rsvr-63" value="sel" style="edgeLabel;html=1;align=center;verticalAlign=middle;resizable=0;points=[];" vertex="1" connectable="0" parent="4TdEoTzuEhbSHWX1Rsvr-62">
          <mxGeometry x="0.026" relative="1" as="geometry">
            <mxPoint as="offset" />
          </mxGeometry>
        </mxCell>
        <mxCell id="4TdEoTzuEhbSHWX1Rsvr-64" value="" style="endArrow=classic;html=1;rounded=0;entryX=0;entryY=0.25;entryDx=0;entryDy=0;" edge="1" parent="4TdEoTzuEhbSHWX1Rsvr-60" target="4TdEoTzuEhbSHWX1Rsvr-61">
          <mxGeometry width="50" height="50" relative="1" as="geometry">
            <mxPoint y="20" as="sourcePoint" />
            <mxPoint x="80" y="60" as="targetPoint" />
          </mxGeometry>
        </mxCell>
        <mxCell id="4TdEoTzuEhbSHWX1Rsvr-65" value="" style="endArrow=classic;html=1;rounded=0;entryX=0;entryY=0.25;entryDx=0;entryDy=0;" edge="1" parent="4TdEoTzuEhbSHWX1Rsvr-60">
          <mxGeometry width="50" height="50" relative="1" as="geometry">
            <mxPoint y="60" as="sourcePoint" />
            <mxPoint x="40" y="60" as="targetPoint" />
          </mxGeometry>
        </mxCell>
        <mxCell id="4TdEoTzuEhbSHWX1Rsvr-66" value="" style="endArrow=none;html=1;rounded=0;startFill=0;" edge="1" parent="1">
          <mxGeometry width="50" height="50" relative="1" as="geometry">
            <mxPoint x="70" y="200" as="sourcePoint" />
            <mxPoint x="200" y="200" as="targetPoint" />
          </mxGeometry>
        </mxCell>
        <mxCell id="4TdEoTzuEhbSHWX1Rsvr-67" value="a" style="edgeLabel;html=1;align=center;verticalAlign=middle;resizable=0;points=[];fontSize=16;" vertex="1" connectable="0" parent="4TdEoTzuEhbSHWX1Rsvr-66">
          <mxGeometry x="-0.0354" y="-1" relative="1" as="geometry">
            <mxPoint x="-43" y="-1" as="offset" />
          </mxGeometry>
        </mxCell>
        <mxCell id="4TdEoTzuEhbSHWX1Rsvr-68" value="" style="endArrow=none;html=1;rounded=0;startFill=0;" edge="1" parent="1">
          <mxGeometry width="50" height="50" relative="1" as="geometry">
            <mxPoint x="70" y="230" as="sourcePoint" />
            <mxPoint x="200" y="230" as="targetPoint" />
          </mxGeometry>
        </mxCell>
        <mxCell id="4TdEoTzuEhbSHWX1Rsvr-69" value="b" style="edgeLabel;html=1;align=center;verticalAlign=middle;resizable=0;points=[];fontSize=16;" vertex="1" connectable="0" parent="4TdEoTzuEhbSHWX1Rsvr-68">
          <mxGeometry x="-0.0354" y="-1" relative="1" as="geometry">
            <mxPoint x="-43" y="-1" as="offset" />
          </mxGeometry>
        </mxCell>
        <mxCell id="4TdEoTzuEhbSHWX1Rsvr-70" value="" style="endArrow=none;html=1;rounded=0;startFill=0;" edge="1" parent="1">
          <mxGeometry width="50" height="50" relative="1" as="geometry">
            <mxPoint x="70" y="260" as="sourcePoint" />
            <mxPoint x="200" y="260" as="targetPoint" />
          </mxGeometry>
        </mxCell>
        <mxCell id="4TdEoTzuEhbSHWX1Rsvr-71" value="c" style="edgeLabel;html=1;align=center;verticalAlign=middle;resizable=0;points=[];fontSize=16;" vertex="1" connectable="0" parent="4TdEoTzuEhbSHWX1Rsvr-70">
          <mxGeometry x="-0.0354" y="-1" relative="1" as="geometry">
            <mxPoint x="-43" y="-1" as="offset" />
          </mxGeometry>
        </mxCell>
        <mxCell id="4TdEoTzuEhbSHWX1Rsvr-72" value="" style="endArrow=none;html=1;rounded=0;startFill=0;" edge="1" parent="1">
          <mxGeometry width="50" height="50" relative="1" as="geometry">
            <mxPoint x="70" y="290" as="sourcePoint" />
            <mxPoint x="200" y="290" as="targetPoint" />
          </mxGeometry>
        </mxCell>
        <mxCell id="4TdEoTzuEhbSHWX1Rsvr-73" value="d" style="edgeLabel;html=1;align=center;verticalAlign=middle;resizable=0;points=[];fontSize=16;" vertex="1" connectable="0" parent="4TdEoTzuEhbSHWX1Rsvr-72">
          <mxGeometry x="-0.0354" y="-1" relative="1" as="geometry">
            <mxPoint x="-43" y="-1" as="offset" />
          </mxGeometry>
        </mxCell>
        <mxCell id="4TdEoTzuEhbSHWX1Rsvr-74" value="" style="endArrow=none;html=1;rounded=0;startFill=0;" edge="1" parent="1">
          <mxGeometry width="50" height="50" relative="1" as="geometry">
            <mxPoint x="70" y="420" as="sourcePoint" />
            <mxPoint x="390" y="420" as="targetPoint" />
          </mxGeometry>
        </mxCell>
        <mxCell id="4TdEoTzuEhbSHWX1Rsvr-75" value="e" style="edgeLabel;html=1;align=center;verticalAlign=middle;resizable=0;points=[];fontSize=16;" vertex="1" connectable="0" parent="4TdEoTzuEhbSHWX1Rsvr-74">
          <mxGeometry x="-0.0354" y="-1" relative="1" as="geometry">
            <mxPoint x="-134" y="-1" as="offset" />
          </mxGeometry>
        </mxCell>
        <mxCell id="4TdEoTzuEhbSHWX1Rsvr-76" value="" style="endArrow=none;html=1;rounded=0;startFill=0;" edge="1" parent="1">
          <mxGeometry width="50" height="50" relative="1" as="geometry">
            <mxPoint x="70" y="450" as="sourcePoint" />
            <mxPoint x="390" y="450" as="targetPoint" />
          </mxGeometry>
        </mxCell>
        <mxCell id="4TdEoTzuEhbSHWX1Rsvr-77" value="f" style="edgeLabel;html=1;align=center;verticalAlign=middle;resizable=0;points=[];fontSize=16;" vertex="1" connectable="0" parent="4TdEoTzuEhbSHWX1Rsvr-76">
          <mxGeometry x="-0.0354" y="-1" relative="1" as="geometry">
            <mxPoint x="-134" y="-1" as="offset" />
          </mxGeometry>
        </mxCell>
        <mxCell id="4TdEoTzuEhbSHWX1Rsvr-78" value="" style="endArrow=none;html=1;rounded=0;startFill=0;" edge="1" parent="1">
          <mxGeometry width="50" height="50" relative="1" as="geometry">
            <mxPoint x="70" y="480" as="sourcePoint" />
            <mxPoint x="390" y="480" as="targetPoint" />
          </mxGeometry>
        </mxCell>
        <mxCell id="4TdEoTzuEhbSHWX1Rsvr-79" value="g" style="edgeLabel;html=1;align=center;verticalAlign=middle;resizable=0;points=[];fontSize=16;" vertex="1" connectable="0" parent="4TdEoTzuEhbSHWX1Rsvr-78">
          <mxGeometry x="-0.0354" y="-1" relative="1" as="geometry">
            <mxPoint x="-134" y="-1" as="offset" />
          </mxGeometry>
        </mxCell>
        <mxCell id="4TdEoTzuEhbSHWX1Rsvr-80" value="" style="endArrow=none;html=1;rounded=0;startFill=0;" edge="1" parent="1">
          <mxGeometry width="50" height="50" relative="1" as="geometry">
            <mxPoint x="70" y="510" as="sourcePoint" />
            <mxPoint x="390" y="510" as="targetPoint" />
          </mxGeometry>
        </mxCell>
        <mxCell id="4TdEoTzuEhbSHWX1Rsvr-81" value="h" style="edgeLabel;html=1;align=center;verticalAlign=middle;resizable=0;points=[];fontSize=16;" vertex="1" connectable="0" parent="4TdEoTzuEhbSHWX1Rsvr-80">
          <mxGeometry x="-0.0354" y="-1" relative="1" as="geometry">
            <mxPoint x="-134" y="-1" as="offset" />
          </mxGeometry>
        </mxCell>
        <mxCell id="4TdEoTzuEhbSHWX1Rsvr-82" value="" style="endArrow=none;html=1;rounded=0;startFill=0;" edge="1" parent="1">
          <mxGeometry width="50" height="50" relative="1" as="geometry">
            <mxPoint x="70" y="640" as="sourcePoint" />
            <mxPoint x="130" y="640" as="targetPoint" />
          </mxGeometry>
        </mxCell>
        <mxCell id="4TdEoTzuEhbSHWX1Rsvr-83" value="sel[0]" style="edgeLabel;html=1;align=center;verticalAlign=middle;resizable=0;points=[];fontSize=16;" vertex="1" connectable="0" parent="4TdEoTzuEhbSHWX1Rsvr-82">
          <mxGeometry x="-0.0354" y="-1" relative="1" as="geometry">
            <mxPoint y="-1" as="offset" />
          </mxGeometry>
        </mxCell>
        <mxCell id="4TdEoTzuEhbSHWX1Rsvr-88" value="" style="endArrow=none;html=1;rounded=0;startFill=0;" edge="1" parent="1">
          <mxGeometry width="50" height="50" relative="1" as="geometry">
            <mxPoint x="70" y="670" as="sourcePoint" />
            <mxPoint x="130" y="670" as="targetPoint" />
          </mxGeometry>
        </mxCell>
        <mxCell id="4TdEoTzuEhbSHWX1Rsvr-89" value="sel[1]" style="edgeLabel;html=1;align=center;verticalAlign=middle;resizable=0;points=[];fontSize=16;" vertex="1" connectable="0" parent="4TdEoTzuEhbSHWX1Rsvr-88">
          <mxGeometry x="-0.0354" y="-1" relative="1" as="geometry">
            <mxPoint y="-1" as="offset" />
          </mxGeometry>
        </mxCell>
        <mxCell id="4TdEoTzuEhbSHWX1Rsvr-90" value="" style="endArrow=none;html=1;rounded=0;startFill=0;" edge="1" parent="1">
          <mxGeometry width="50" height="50" relative="1" as="geometry">
            <mxPoint x="70" y="700" as="sourcePoint" />
            <mxPoint x="130" y="700" as="targetPoint" />
          </mxGeometry>
        </mxCell>
        <mxCell id="4TdEoTzuEhbSHWX1Rsvr-91" value="sel[2]" style="edgeLabel;html=1;align=center;verticalAlign=middle;resizable=0;points=[];fontSize=16;" vertex="1" connectable="0" parent="4TdEoTzuEhbSHWX1Rsvr-90">
          <mxGeometry x="-0.0354" y="-1" relative="1" as="geometry">
            <mxPoint y="-1" as="offset" />
          </mxGeometry>
        </mxCell>
        <mxCell id="4TdEoTzuEhbSHWX1Rsvr-93" value="" style="group" vertex="1" connectable="0" parent="1">
          <mxGeometry x="200" y="190" width="170" height="150" as="geometry" />
        </mxCell>
        <mxCell id="4TdEoTzuEhbSHWX1Rsvr-16" value="Mux4Way16" style="triangle;whiteSpace=wrap;html=1;container=0;" vertex="1" parent="4TdEoTzuEhbSHWX1Rsvr-93">
          <mxGeometry x="60" width="110" height="110" as="geometry" />
        </mxCell>
        <mxCell id="4TdEoTzuEhbSHWX1Rsvr-19" value="" style="endArrow=classic;html=1;rounded=0;entryX=0;entryY=0.25;entryDx=0;entryDy=0;" edge="1" parent="4TdEoTzuEhbSHWX1Rsvr-93">
          <mxGeometry width="50" height="50" relative="1" as="geometry">
            <mxPoint y="10" as="sourcePoint" />
            <mxPoint x="60" y="10" as="targetPoint" />
          </mxGeometry>
        </mxCell>
        <mxCell id="4TdEoTzuEhbSHWX1Rsvr-20" value="" style="endArrow=classic;html=1;rounded=0;entryX=0;entryY=0.25;entryDx=0;entryDy=0;" edge="1" parent="4TdEoTzuEhbSHWX1Rsvr-93">
          <mxGeometry width="50" height="50" relative="1" as="geometry">
            <mxPoint y="40" as="sourcePoint" />
            <mxPoint x="60" y="40" as="targetPoint" />
          </mxGeometry>
        </mxCell>
        <mxCell id="4TdEoTzuEhbSHWX1Rsvr-42" value="" style="endArrow=classic;html=1;rounded=0;entryX=0;entryY=0.25;entryDx=0;entryDy=0;" edge="1" parent="4TdEoTzuEhbSHWX1Rsvr-93">
          <mxGeometry width="50" height="50" relative="1" as="geometry">
            <mxPoint y="70" as="sourcePoint" />
            <mxPoint x="60" y="70" as="targetPoint" />
          </mxGeometry>
        </mxCell>
        <mxCell id="4TdEoTzuEhbSHWX1Rsvr-43" value="" style="endArrow=classic;html=1;rounded=0;entryX=0;entryY=0.25;entryDx=0;entryDy=0;" edge="1" parent="4TdEoTzuEhbSHWX1Rsvr-93">
          <mxGeometry width="50" height="50" relative="1" as="geometry">
            <mxPoint y="100" as="sourcePoint" />
            <mxPoint x="60" y="100" as="targetPoint" />
          </mxGeometry>
        </mxCell>
        <mxCell id="4TdEoTzuEhbSHWX1Rsvr-44" value="" style="endArrow=classic;html=1;rounded=0;" edge="1" parent="4TdEoTzuEhbSHWX1Rsvr-93">
          <mxGeometry width="50" height="50" relative="1" as="geometry">
            <mxPoint x="100" y="150" as="sourcePoint" />
            <mxPoint x="100" y="90" as="targetPoint" />
          </mxGeometry>
        </mxCell>
        <mxCell id="4TdEoTzuEhbSHWX1Rsvr-47" value="sel[1]" style="edgeLabel;html=1;align=center;verticalAlign=middle;resizable=0;points=[];container=0;" vertex="1" connectable="0" parent="4TdEoTzuEhbSHWX1Rsvr-44">
          <mxGeometry x="0.0527" relative="1" as="geometry">
            <mxPoint y="2" as="offset" />
          </mxGeometry>
        </mxCell>
        <mxCell id="4TdEoTzuEhbSHWX1Rsvr-45" value="" style="endArrow=classic;html=1;rounded=0;entryX=0.724;entryY=0.657;entryDx=0;entryDy=0;entryPerimeter=0;" edge="1" parent="4TdEoTzuEhbSHWX1Rsvr-93" target="4TdEoTzuEhbSHWX1Rsvr-16">
          <mxGeometry width="50" height="50" relative="1" as="geometry">
            <mxPoint x="140.92000000000002" y="150" as="sourcePoint" />
            <mxPoint x="140.00000000000006" y="79.85999999999996" as="targetPoint" />
          </mxGeometry>
        </mxCell>
        <mxCell id="4TdEoTzuEhbSHWX1Rsvr-46" value="sel[0]" style="edgeLabel;html=1;align=center;verticalAlign=middle;resizable=0;points=[];container=0;" vertex="1" connectable="0" parent="4TdEoTzuEhbSHWX1Rsvr-45">
          <mxGeometry x="-0.0523" y="-1" relative="1" as="geometry">
            <mxPoint x="-1" y="7" as="offset" />
          </mxGeometry>
        </mxCell>
        <mxCell id="4TdEoTzuEhbSHWX1Rsvr-94" value="" style="group" vertex="1" connectable="0" parent="1">
          <mxGeometry x="390" y="410" width="170" height="150" as="geometry" />
        </mxCell>
        <mxCell id="4TdEoTzuEhbSHWX1Rsvr-95" value="Mux4Way16" style="triangle;whiteSpace=wrap;html=1;container=0;" vertex="1" parent="4TdEoTzuEhbSHWX1Rsvr-94">
          <mxGeometry x="60" width="110" height="110" as="geometry" />
        </mxCell>
        <mxCell id="4TdEoTzuEhbSHWX1Rsvr-96" value="" style="endArrow=classic;html=1;rounded=0;entryX=0;entryY=0.25;entryDx=0;entryDy=0;" edge="1" parent="4TdEoTzuEhbSHWX1Rsvr-94">
          <mxGeometry width="50" height="50" relative="1" as="geometry">
            <mxPoint y="10" as="sourcePoint" />
            <mxPoint x="60" y="10" as="targetPoint" />
          </mxGeometry>
        </mxCell>
        <mxCell id="4TdEoTzuEhbSHWX1Rsvr-97" value="" style="endArrow=classic;html=1;rounded=0;entryX=0;entryY=0.25;entryDx=0;entryDy=0;" edge="1" parent="4TdEoTzuEhbSHWX1Rsvr-94">
          <mxGeometry width="50" height="50" relative="1" as="geometry">
            <mxPoint y="40" as="sourcePoint" />
            <mxPoint x="60" y="40" as="targetPoint" />
          </mxGeometry>
        </mxCell>
        <mxCell id="4TdEoTzuEhbSHWX1Rsvr-98" value="" style="endArrow=classic;html=1;rounded=0;entryX=0;entryY=0.25;entryDx=0;entryDy=0;" edge="1" parent="4TdEoTzuEhbSHWX1Rsvr-94">
          <mxGeometry width="50" height="50" relative="1" as="geometry">
            <mxPoint y="70" as="sourcePoint" />
            <mxPoint x="60" y="70" as="targetPoint" />
          </mxGeometry>
        </mxCell>
        <mxCell id="4TdEoTzuEhbSHWX1Rsvr-99" value="" style="endArrow=classic;html=1;rounded=0;entryX=0;entryY=0.25;entryDx=0;entryDy=0;" edge="1" parent="4TdEoTzuEhbSHWX1Rsvr-94">
          <mxGeometry width="50" height="50" relative="1" as="geometry">
            <mxPoint y="100" as="sourcePoint" />
            <mxPoint x="60" y="100" as="targetPoint" />
          </mxGeometry>
        </mxCell>
        <mxCell id="4TdEoTzuEhbSHWX1Rsvr-100" value="" style="endArrow=classic;html=1;rounded=0;" edge="1" parent="4TdEoTzuEhbSHWX1Rsvr-94">
          <mxGeometry width="50" height="50" relative="1" as="geometry">
            <mxPoint x="100" y="150" as="sourcePoint" />
            <mxPoint x="100" y="90" as="targetPoint" />
          </mxGeometry>
        </mxCell>
        <mxCell id="4TdEoTzuEhbSHWX1Rsvr-101" value="sel[1]" style="edgeLabel;html=1;align=center;verticalAlign=middle;resizable=0;points=[];container=0;" vertex="1" connectable="0" parent="4TdEoTzuEhbSHWX1Rsvr-100">
          <mxGeometry x="0.0527" relative="1" as="geometry">
            <mxPoint y="2" as="offset" />
          </mxGeometry>
        </mxCell>
        <mxCell id="4TdEoTzuEhbSHWX1Rsvr-102" value="" style="endArrow=classic;html=1;rounded=0;entryX=0.724;entryY=0.657;entryDx=0;entryDy=0;entryPerimeter=0;" edge="1" parent="4TdEoTzuEhbSHWX1Rsvr-94" target="4TdEoTzuEhbSHWX1Rsvr-95">
          <mxGeometry width="50" height="50" relative="1" as="geometry">
            <mxPoint x="140.92000000000002" y="150" as="sourcePoint" />
            <mxPoint x="140.00000000000006" y="79.85999999999996" as="targetPoint" />
          </mxGeometry>
        </mxCell>
        <mxCell id="4TdEoTzuEhbSHWX1Rsvr-103" value="sel[0]" style="edgeLabel;html=1;align=center;verticalAlign=middle;resizable=0;points=[];container=0;" vertex="1" connectable="0" parent="4TdEoTzuEhbSHWX1Rsvr-102">
          <mxGeometry x="-0.0523" y="-1" relative="1" as="geometry">
            <mxPoint x="-1" y="7" as="offset" />
          </mxGeometry>
        </mxCell>
        <mxCell id="4TdEoTzuEhbSHWX1Rsvr-104" value="" style="endArrow=none;html=1;rounded=0;edgeStyle=orthogonalEdgeStyle;startFill=0;" edge="1" parent="1" source="4TdEoTzuEhbSHWX1Rsvr-110">
          <mxGeometry width="50" height="50" relative="1" as="geometry">
            <mxPoint x="120" y="640" as="sourcePoint" />
            <mxPoint x="340" y="340" as="targetPoint" />
          </mxGeometry>
        </mxCell>
        <mxCell id="4TdEoTzuEhbSHWX1Rsvr-105" value="" style="endArrow=none;html=1;rounded=0;edgeStyle=orthogonalEdgeStyle;startFill=0;" edge="1" parent="1" source="4TdEoTzuEhbSHWX1Rsvr-107">
          <mxGeometry width="50" height="50" relative="1" as="geometry">
            <mxPoint x="130" y="670" as="sourcePoint" />
            <mxPoint x="300" y="340" as="targetPoint" />
          </mxGeometry>
        </mxCell>
        <mxCell id="4TdEoTzuEhbSHWX1Rsvr-106" value="" style="endArrow=none;html=1;rounded=0;edgeStyle=orthogonalEdgeStyle;startFill=0;" edge="1" parent="1">
          <mxGeometry width="50" height="50" relative="1" as="geometry">
            <mxPoint x="130" y="700" as="sourcePoint" />
            <mxPoint x="710" y="400" as="targetPoint" />
          </mxGeometry>
        </mxCell>
        <mxCell id="4TdEoTzuEhbSHWX1Rsvr-111" value="" style="endArrow=none;html=1;rounded=0;edgeStyle=orthogonalEdgeStyle;startFill=0;" edge="1" parent="1" target="4TdEoTzuEhbSHWX1Rsvr-110">
          <mxGeometry width="50" height="50" relative="1" as="geometry">
            <mxPoint x="120" y="640" as="sourcePoint" />
            <mxPoint x="340" y="340" as="targetPoint" />
          </mxGeometry>
        </mxCell>
        <mxCell id="4TdEoTzuEhbSHWX1Rsvr-114" style="edgeStyle=orthogonalEdgeStyle;rounded=0;orthogonalLoop=1;jettySize=auto;html=1;endArrow=none;startFill=0;" edge="1" parent="1" source="4TdEoTzuEhbSHWX1Rsvr-110">
          <mxGeometry relative="1" as="geometry">
            <mxPoint x="530" y="560" as="targetPoint" />
          </mxGeometry>
        </mxCell>
        <mxCell id="4TdEoTzuEhbSHWX1Rsvr-110" value="" style="ellipse;whiteSpace=wrap;html=1;aspect=fixed;" vertex="1" parent="1">
          <mxGeometry x="340" y="620" width="10" height="10" as="geometry" />
        </mxCell>
        <mxCell id="4TdEoTzuEhbSHWX1Rsvr-112" value="" style="endArrow=none;html=1;rounded=0;edgeStyle=orthogonalEdgeStyle;startFill=0;" edge="1" parent="1" target="4TdEoTzuEhbSHWX1Rsvr-107">
          <mxGeometry width="50" height="50" relative="1" as="geometry">
            <mxPoint x="130" y="670" as="sourcePoint" />
            <mxPoint x="300" y="340" as="targetPoint" />
          </mxGeometry>
        </mxCell>
        <mxCell id="4TdEoTzuEhbSHWX1Rsvr-113" style="edgeStyle=orthogonalEdgeStyle;rounded=0;orthogonalLoop=1;jettySize=auto;html=1;endArrow=none;startFill=0;" edge="1" parent="1" source="4TdEoTzuEhbSHWX1Rsvr-107">
          <mxGeometry relative="1" as="geometry">
            <mxPoint x="490" y="560" as="targetPoint" />
          </mxGeometry>
        </mxCell>
        <mxCell id="4TdEoTzuEhbSHWX1Rsvr-107" value="" style="ellipse;whiteSpace=wrap;html=1;aspect=fixed;" vertex="1" parent="1">
          <mxGeometry x="300" y="650" width="10" height="10" as="geometry" />
        </mxCell>
        <mxCell id="4TdEoTzuEhbSHWX1Rsvr-115" style="edgeStyle=orthogonalEdgeStyle;rounded=0;orthogonalLoop=1;jettySize=auto;html=1;entryX=0;entryY=0.25;entryDx=0;entryDy=0;" edge="1" parent="1" source="4TdEoTzuEhbSHWX1Rsvr-16" target="4TdEoTzuEhbSHWX1Rsvr-61">
          <mxGeometry relative="1" as="geometry" />
        </mxCell>
        <mxCell id="4TdEoTzuEhbSHWX1Rsvr-116" style="edgeStyle=orthogonalEdgeStyle;rounded=0;orthogonalLoop=1;jettySize=auto;html=1;entryX=0;entryY=0.75;entryDx=0;entryDy=0;" edge="1" parent="1" source="4TdEoTzuEhbSHWX1Rsvr-95" target="4TdEoTzuEhbSHWX1Rsvr-61">
          <mxGeometry relative="1" as="geometry" />
        </mxCell>
      </root>
    </mxGraphModel>
  </diagram>
</mxfile>
